<?xml version="1.0" encoding="UTF-8"?>
<!DOCTYPE svg PUBLIC "-//W3C//DTD SVG 1.1//EN" "http://www.w3.org/Graphics/SVG/1.1/DTD/svg11.dtd">
<!-- Creator: CorelDRAW 2020 (64 Bit Sem fins comerciais) -->
<svg xmlns="http://www.w3.org/2000/svg" xml:space="preserve" width="315px" height="90px" version="1.1" style="shape-rendering:geometricPrecision; text-rendering:geometricPrecision; image-rendering:optimizeQuality; fill-rule:evenodd; clip-rule:evenodd"
viewBox="0 0 314.68 89.91"
 xmlns:xlink="http://www.w3.org/1999/xlink"
 xmlns:xodm="http://www.corel.com/coreldraw/odm/2003">
 <defs>
  <style type="text/css">
   <![CDATA[
    .fil0 {fill:none}
    .fil5 {fill:#FEFEFE;fill-rule:nonzero}
    .fil4 {fill:#71A7B6;fill-rule:nonzero}
    .fil3 {fill:#6C89A7;fill-rule:nonzero}
    .fil2 {fill:#667999;fill-rule:nonzero}
    .fil1 {fill:#636087;fill-rule:nonzero}
   ]]>
  </style>
 </defs>
 <g id="Camada_x0020_1">
  <metadata id="CorelCorpID_0Corel-Layer"/>
  <rect class="fil0" width="314.68" height="89.91"/>
  <g id="_2969633101040">
   <path class="fil1" d="M51.07 61.95c0,1.89 -1.53,3.42 -3.42,3.42 -1.88,0 -3.41,-1.53 -3.41,-3.42 0,-1.88 1.53,-3.41 3.41,-3.41 1.89,0 3.42,1.53 3.42,3.41z"/>
   <path class="fil2" d="M38.85 52.71c0,2.19 -1.78,3.97 -3.98,3.97 -2.19,0 -3.97,-1.78 -3.97,-3.97 0,-2.2 1.78,-3.98 3.97,-3.98 2.2,0 3.98,1.78 3.98,3.98z"/>
   <path class="fil2" d="M51.63 52.71c0,2.19 -1.78,3.97 -3.98,3.97 -2.19,0 -3.97,-1.78 -3.97,-3.97 0,-2.2 1.78,-3.98 3.97,-3.98 2.2,0 3.98,1.78 3.98,3.98z"/>
   <path class="fil2" d="M64.41 52.71c0,2.19 -1.78,3.97 -3.97,3.97 -2.2,0 -3.98,-1.78 -3.98,-3.97 0,-2.2 1.78,-3.98 3.98,-3.98 2.19,0 3.97,1.78 3.97,3.98z"/>
   <path class="fil3" d="M26.69 42.28c0,2.54 -2.06,4.6 -4.6,4.6 -2.54,0 -4.59,-2.06 -4.59,-4.6 0,-2.53 2.05,-4.59 4.59,-4.59 2.54,0 4.6,2.06 4.6,4.59z"/>
   <path class="fil3" d="M39.47 42.28c0,2.54 -2.06,4.6 -4.6,4.6 -2.53,0 -4.59,-2.06 -4.59,-4.6 0,-2.53 2.06,-4.59 4.59,-4.59 2.54,0 4.6,2.06 4.6,4.59z"/>
   <path class="fil3" d="M52.25 42.28c0,2.54 -2.06,4.6 -4.6,4.6 -2.53,0 -4.59,-2.06 -4.59,-4.6 0,-2.53 2.06,-4.59 4.59,-4.59 2.54,0 4.6,2.06 4.6,4.59z"/>
   <path class="fil3" d="M65.03 42.28c0,2.54 -2.06,4.6 -4.59,4.6 -2.54,0 -4.6,-2.06 -4.6,-4.6 0,-2.53 2.06,-4.59 4.6,-4.59 2.53,0 4.59,2.06 4.59,4.59z"/>
   <path class="fil3" d="M77.81 42.28c0,2.54 -2.06,4.6 -4.59,4.6 -2.54,0 -4.6,-2.06 -4.6,-4.6 0,-2.53 2.06,-4.59 4.6,-4.59 2.53,0 4.59,2.06 4.59,4.59z"/>
   <path class="fil4" d="M14.77 30.37c0,3.02 -2.44,5.47 -5.46,5.47 -3.02,0 -5.46,-2.45 -5.46,-5.47 0,-3.01 2.44,-5.46 5.46,-5.46 3.02,0 5.46,2.45 5.46,5.46z"/>
   <path class="fil4" d="M27.55 30.37c0,3.02 -2.44,5.47 -5.46,5.47 -3.02,0 -5.46,-2.45 -5.46,-5.47 0,-3.01 2.44,-5.46 5.46,-5.46 3.02,0 5.46,2.45 5.46,5.46z"/>
   <path class="fil4" d="M40.34 30.37c0,3.02 -2.45,5.47 -5.47,5.47 -3.01,0 -5.46,-2.45 -5.46,-5.47 0,-3.01 2.45,-5.46 5.46,-5.46 3.02,0 5.47,2.45 5.47,5.46z"/>
   <path class="fil4" d="M53.12 30.37c0,3.02 -2.45,5.47 -5.47,5.47 -3.01,0 -5.46,-2.45 -5.46,-5.47 0,-3.01 2.45,-5.46 5.46,-5.46 3.02,0 5.47,2.45 5.47,5.46z"/>
   <path class="fil4" d="M65.9 30.37c0,3.02 -2.45,5.47 -5.46,5.47 -3.02,0 -5.47,-2.45 -5.47,-5.47 0,-3.01 2.45,-5.46 5.47,-5.46 3.01,0 5.46,2.45 5.46,5.46z"/>
   <path class="fil4" d="M78.68 30.37c0,3.02 -2.45,5.47 -5.46,5.47 -3.02,0 -5.47,-2.45 -5.47,-5.47 0,-3.01 2.45,-5.46 5.47,-5.46 3.01,0 5.46,2.45 5.46,5.46z"/>
   <path class="fil4" d="M91.46 30.37c0,3.02 -2.45,5.47 -5.46,5.47 -3.02,0 -5.46,-2.45 -5.46,-5.47 0,-3.01 2.44,-5.46 5.46,-5.46 3.01,0 5.46,2.45 5.46,5.46z"/>
  </g>
  <g id="_2969633090624">
   <path class="fil5" d="M114.24 37.81l-1.75 -6.33 -0.1 0 -1.87 6.33 3.72 0zm0.95 -12.9c0.65,0 1.09,0.33 1.32,0.98l6.35 19.44c0.15,0.39 0.14,0.7 -0.03,0.95 -0.16,0.25 -0.43,0.37 -0.79,0.37l-4.67 0c-0.72,0 -1.17,-0.34 -1.35,-1.01l-0.68 -2.37 -5.86 0 -0.65 2.37c-0.18,0.67 -0.63,1.01 -1.35,1.01l-4.67 0c-0.36,0 -0.63,-0.12 -0.79,-0.37 -0.17,-0.25 -0.18,-0.56 -0.04,-0.95l6.36 -19.44c0.23,-0.65 0.67,-0.98 1.32,-0.98l5.53 0z"/>
   <path class="fil5" d="M124.46 38.48l0 -12.47c0,-0.73 0.37,-1.1 1.11,-1.1l4.48 0c0.74,0 1.1,0.37 1.1,1.1l0 11.83c0,1.14 0.19,1.97 0.56,2.48 0.37,0.52 0.98,0.77 1.84,0.77 0.86,0 1.47,-0.25 1.84,-0.77 0.37,-0.51 0.55,-1.33 0.55,-2.45l0 -11.86c0,-0.73 0.37,-1.1 1.11,-1.1l4.48 0c0.74,0 1.11,0.37 1.11,1.1l0 12.47c0,5.67 -3.03,8.51 -9.09,8.51 -6.06,0 -9.09,-2.84 -9.09,-8.51z"/>
   <path class="fil5" d="M144.82 26.01c0,-0.73 0.37,-1.1 1.1,-1.1l14.56 0c0.73,0 1.1,0.37 1.1,1.1l0 3.69c0,0.74 -0.37,1.1 -1.1,1.1l-3.93 0 0 14.74c0,0.74 -0.37,1.11 -1.11,1.11l-4.48 0c-0.74,0 -1.11,-0.37 -1.11,-1.11l0 -14.74 -3.93 0c-0.73,0 -1.1,-0.36 -1.1,-1.1l0 -3.69z"/>
   <path class="fil5" d="M175.37 40.02c0.53,-0.86 0.8,-2.28 0.8,-4.24 0,-1.97 -0.27,-3.38 -0.8,-4.24 -0.53,-0.86 -1.34,-1.29 -2.43,-1.29 -1.08,0 -1.89,0.43 -2.42,1.29 -0.54,0.86 -0.8,2.27 -0.8,4.24 0,1.96 0.26,3.38 0.8,4.24 0.53,0.86 1.34,1.29 2.42,1.29 1.09,0 1.9,-0.43 2.43,-1.29zm4.94 -12.73c1.76,1.83 2.64,4.66 2.64,8.49 0,3.83 -0.88,6.66 -2.64,8.49 -1.76,1.83 -4.22,2.75 -7.37,2.75 -3.15,0 -5.61,-0.92 -7.37,-2.75 -1.76,-1.83 -2.64,-4.66 -2.64,-8.49 0,-3.83 0.88,-6.66 2.64,-8.49 1.76,-1.83 4.22,-2.75 7.37,-2.75 3.15,0 5.61,0.92 7.37,2.75z"/>
   <path class="fil5" d="M195.97 42.17l-3.93 -6.61 0 9.98c0,0.74 -0.37,1.11 -1.11,1.11l-4.23 0c-0.74,0 -1.11,-0.37 -1.11,-1.11l0 -19.53c0,-0.73 0.37,-1.1 1.11,-1.1l4.08 0c0.59,0 1.01,0.2 1.26,0.61l4.73 8.14 4.73 -8.14c0.24,-0.41 0.66,-0.61 1.26,-0.61l4.08 0c0.74,0 1.1,0.37 1.1,1.1l0 19.53c0,0.74 -0.36,1.11 -1.1,1.11l-4.24 0c-0.74,0 -1.1,-0.37 -1.1,-1.11l0 -9.98 -3.93 6.61c-0.19,0.3 -0.45,0.46 -0.8,0.46 -0.35,0 -0.62,-0.16 -0.8,-0.46z"/>
   <path class="fil5" d="M223.02 40.02c0.53,-0.86 0.8,-2.28 0.8,-4.24 0,-1.97 -0.27,-3.38 -0.8,-4.24 -0.53,-0.86 -1.34,-1.29 -2.43,-1.29 -1.08,0 -1.89,0.43 -2.42,1.29 -0.53,0.86 -0.8,2.27 -0.8,4.24 0,1.96 0.27,3.38 0.8,4.24 0.53,0.86 1.34,1.29 2.42,1.29 1.09,0 1.9,-0.43 2.43,-1.29zm4.94 -12.73c1.76,1.83 2.64,4.66 2.64,8.49 0,3.83 -0.88,6.66 -2.64,8.49 -1.76,1.83 -4.21,2.75 -7.37,2.75 -3.15,0 -5.61,-0.92 -7.37,-2.75 -1.76,-1.83 -2.64,-4.66 -2.64,-8.49 0,-3.83 0.88,-6.66 2.64,-8.49 1.76,-1.83 4.22,-2.75 7.37,-2.75 3.16,0 5.61,0.92 7.37,2.75z"/>
   <path class="fil5" d="M239.94 40.75l6.75 0c0.74,0 1.11,0.37 1.11,1.11l0 3.68c0,0.74 -0.37,1.11 -1.11,1.11l-12.34 0c-0.74,0 -1.11,-0.37 -1.11,-1.11l0 -19.52c0,-0.74 0.37,-1.11 1.11,-1.11l4.48 0c0.74,0 1.11,0.37 1.11,1.11l0 14.73z"/>
   <path class="fil5" d="M257.13 30.68l0 10.2 0.95 0c1.5,0 2.57,-0.37 3.23,-1.09 0.65,-0.73 0.98,-2.07 0.98,-4.01 0,-1.95 -0.33,-3.28 -0.98,-4.01 -0.66,-0.73 -1.73,-1.09 -3.23,-1.09l-0.95 0zm-5.59 15.97c-0.73,0 -1.1,-0.37 -1.1,-1.11l0 -19.52c0,-0.74 0.37,-1.11 1.1,-1.11l6.85 0c3.6,0 6.28,0.87 8.03,2.61 1.75,1.74 2.62,4.49 2.62,8.26 0,3.77 -0.87,6.52 -2.62,8.26 -1.75,1.74 -4.43,2.61 -8.03,2.61l-6.85 0z"/>
   <path class="fil5" d="M281.97 37.81l-1.75 -6.33 -0.09 0 -1.88 6.33 3.72 0zm0.95 -12.9c0.66,0 1.1,0.33 1.32,0.98l6.36 19.44c0.14,0.39 0.13,0.7 -0.03,0.95 -0.17,0.25 -0.43,0.37 -0.8,0.37l-4.67 0c-0.71,0 -1.16,-0.34 -1.35,-1.01l-0.67 -2.37 -5.87 0 -0.64 2.37c-0.19,0.67 -0.64,1.01 -1.36,1.01l-4.66 0c-0.37,0 -0.64,-0.12 -0.8,-0.37 -0.16,-0.25 -0.17,-0.56 -0.03,-0.95l6.35 -19.44c0.23,-0.65 0.67,-0.98 1.32,-0.98l5.53 0z"/>
   <path class="fil5" d="M301.44 34.98c0.96,0 1.65,-0.18 2.07,-0.55 0.42,-0.37 0.63,-0.94 0.63,-1.72 0,-0.88 -0.21,-1.48 -0.62,-1.8 -0.41,-0.32 -1.1,-0.47 -2.08,-0.47l-2.21 0 0 4.54 2.21 0zm0.09 -10.07c3.09,0 5.41,0.6 6.97,1.8 1.55,1.19 2.33,3.19 2.33,6 0,3.09 -1.31,5.25 -3.93,6.48l3.69 6.08c0.22,0.37 0.27,0.69 0.15,0.96 -0.12,0.28 -0.38,0.42 -0.77,0.42l-4.48 0c-0.68,0 -1.19,-0.3 -1.54,-0.89l-3.16 -5.56 -1.56 0 0 5.34c0,0.74 -0.37,1.11 -1.11,1.11l-4.42 0c-0.74,0 -1.11,-0.37 -1.11,-1.11l0 -19.53c0,-0.73 0.37,-1.1 1.11,-1.1l7.83 0z"/>
  </g>
  <g id="_2969634631232">
   <path class="fil5" d="M106.18 59.26l-1.14 -3.21 -1.14 3.21 2.28 0zm0.31 0.86l-2.9 0 -0.52 1.49 -1.19 0 2.53 -6.77 1.28 0 2.52 6.77 -1.19 0 -0.53 -1.49z"/>
   <path class="fil5" d="M110.1 54.74l0 4.08c0,0.61 0.13,1.06 0.4,1.36 0.27,0.3 0.65,0.45 1.14,0.45 0.48,0 0.85,-0.15 1.12,-0.45 0.27,-0.3 0.4,-0.75 0.4,-1.36l0 -4.08 1.11 0 0 4.08c0,0.94 -0.24,1.65 -0.73,2.13 -0.48,0.49 -1.13,0.73 -1.92,0.73 -0.8,0 -1.43,-0.24 -1.91,-0.73 -0.48,-0.48 -0.72,-1.19 -0.72,-2.13l0 -4.08 1.11 0z"/>
   <polygon class="fil5" points="119.99,54.74 119.99,55.63 118.07,55.63 118.07,61.61 116.95,61.61 116.95,55.63 115.04,55.63 115.04,54.74 "/>
   <path class="fil5" d="M122.82 55.98c-0.34,0.2 -0.61,0.49 -0.8,0.87 -0.19,0.38 -0.29,0.81 -0.29,1.31 0,0.5 0.1,0.94 0.29,1.32 0.19,0.37 0.46,0.66 0.8,0.86 0.35,0.21 0.74,0.31 1.18,0.31 0.44,0 0.82,-0.1 1.16,-0.31 0.34,-0.2 0.61,-0.49 0.8,-0.86 0.19,-0.38 0.29,-0.82 0.29,-1.32 0,-0.5 -0.1,-0.93 -0.29,-1.31 -0.19,-0.38 -0.46,-0.67 -0.8,-0.87 -0.34,-0.2 -0.72,-0.3 -1.16,-0.3 -0.44,0 -0.83,0.1 -1.18,0.3zm2.91 -0.88c0.51,0.3 0.92,0.71 1.22,1.25 0.29,0.53 0.44,1.14 0.44,1.81 0,0.68 -0.15,1.28 -0.44,1.82 -0.3,0.54 -0.71,0.95 -1.22,1.26 -0.52,0.3 -1.09,0.45 -1.73,0.45 -0.64,0 -1.22,-0.15 -1.74,-0.45 -0.51,-0.31 -0.92,-0.72 -1.22,-1.26 -0.3,-0.54 -0.45,-1.14 -0.45,-1.82 0,-0.67 0.15,-1.28 0.45,-1.81 0.3,-0.54 0.71,-0.95 1.22,-1.25 0.52,-0.3 1.1,-0.45 1.74,-0.45 0.64,0 1.21,0.15 1.73,0.45z"/>
   <polygon class="fil5" points="135.63,54.84 135.63,61.61 134.51,61.61 134.51,56.54 132.56,61.61 131.58,61.61 129.62,56.54 129.62,61.61 128.51,61.61 128.51,54.84 129.85,54.84 132.09,60.25 134.29,54.84 "/>
   <path class="fil5" d="M140.76 59.26l-1.14 -3.21 -1.14 3.21 2.28 0zm0.31 0.86l-2.9 0 -0.53 1.49 -1.19 0 2.53 -6.77 1.28 0 2.52 6.77 -1.19 0 -0.52 -1.49z"/>
   <path class="fil5" d="M147.9 62.41c0.23,0.16 0.35,0.41 0.35,0.75 0,0.33 -0.11,0.58 -0.34,0.75 -0.23,0.17 -0.53,0.25 -0.88,0.25l-1.12 0 0 -0.62 0.99 0c0.39,0 0.58,-0.14 0.58,-0.41 0,-0.12 -0.04,-0.21 -0.14,-0.28 -0.09,-0.07 -0.24,-0.11 -0.44,-0.11l-0.58 0 0 -1.2 0.69 0 0 0.65c0.35,-0.01 0.65,0.06 0.89,0.22zm0.88 -7.1c0.56,0.43 0.93,1.01 1.13,1.74l-1.18 0c-0.16,-0.41 -0.42,-0.74 -0.77,-0.98 -0.36,-0.25 -0.79,-0.37 -1.3,-0.37 -0.41,0 -0.78,0.1 -1.1,0.3 -0.32,0.2 -0.57,0.49 -0.76,0.86 -0.18,0.38 -0.28,0.81 -0.28,1.31 0,0.5 0.1,0.93 0.28,1.3 0.19,0.38 0.44,0.66 0.76,0.86 0.32,0.21 0.69,0.31 1.1,0.31 0.51,0 0.94,-0.12 1.3,-0.37 0.35,-0.24 0.61,-0.57 0.77,-0.98l1.18 0c-0.2,0.74 -0.57,1.32 -1.13,1.74 -0.56,0.43 -1.26,0.64 -2.1,0.64 -0.65,0 -1.23,-0.15 -1.73,-0.44 -0.5,-0.3 -0.88,-0.71 -1.16,-1.24 -0.27,-0.53 -0.41,-1.13 -0.41,-1.82 0,-0.68 0.14,-1.28 0.41,-1.81 0.28,-0.53 0.66,-0.94 1.16,-1.24 0.5,-0.3 1.08,-0.45 1.73,-0.45 0.84,0 1.54,0.21 2.1,0.64z"/>
   <path class="fil5" d="M154.8 59.26l-1.13 -3.21 -1.14 3.21 2.27 0zm-1.39 -6.15c0.09,0.04 0.21,0.1 0.35,0.19 0.1,0.07 0.19,0.12 0.27,0.16 0.08,0.03 0.17,0.05 0.26,0.05 0.11,0 0.2,-0.04 0.28,-0.12 0.07,-0.07 0.12,-0.19 0.15,-0.34l0.58 0c-0.05,0.38 -0.17,0.66 -0.35,0.85 -0.19,0.19 -0.42,0.28 -0.7,0.28 -0.14,0 -0.26,-0.02 -0.37,-0.07 -0.1,-0.04 -0.22,-0.11 -0.35,-0.19 -0.12,-0.07 -0.22,-0.12 -0.28,-0.15 -0.06,-0.03 -0.13,-0.05 -0.22,-0.05 -0.24,0 -0.38,0.16 -0.42,0.46l-0.59 0c0.12,-0.76 0.47,-1.14 1.05,-1.14 0.13,0 0.24,0.02 0.34,0.07zm1.71 7.01l-2.91 0 -0.52 1.49 -1.19 0 2.53 -6.77 1.28 0 2.52 6.77 -1.19 0 -0.52 -1.49z"/>
   <path class="fil5" d="M159.66 55.98c-0.34,0.2 -0.61,0.49 -0.8,0.87 -0.19,0.38 -0.29,0.81 -0.29,1.31 0,0.5 0.1,0.94 0.29,1.32 0.19,0.37 0.46,0.66 0.8,0.86 0.35,0.21 0.74,0.31 1.18,0.31 0.44,0 0.82,-0.1 1.16,-0.31 0.35,-0.2 0.61,-0.49 0.8,-0.86 0.19,-0.38 0.29,-0.82 0.29,-1.32 0,-0.5 -0.1,-0.93 -0.29,-1.31 -0.19,-0.38 -0.45,-0.67 -0.8,-0.87 -0.34,-0.2 -0.72,-0.3 -1.16,-0.3 -0.44,0 -0.83,0.1 -1.18,0.3zm2.91 -0.88c0.52,0.3 0.92,0.71 1.22,1.25 0.29,0.53 0.44,1.14 0.44,1.81 0,0.68 -0.15,1.28 -0.44,1.82 -0.3,0.54 -0.7,0.95 -1.22,1.26 -0.52,0.3 -1.09,0.45 -1.73,0.45 -0.64,0 -1.22,-0.15 -1.74,-0.45 -0.51,-0.31 -0.92,-0.72 -1.22,-1.26 -0.3,-0.54 -0.45,-1.14 -0.45,-1.82 0,-0.67 0.15,-1.28 0.45,-1.81 0.3,-0.54 0.71,-0.95 1.22,-1.25 0.52,-0.3 1.1,-0.45 1.74,-0.45 0.64,0 1.21,0.15 1.73,0.45z"/>
   <polygon class="fil5" points="168.74,55.63 168.74,57.72 171.27,57.72 171.27,58.57 168.74,58.57 168.74,60.7 171.56,60.7 171.56,61.61 167.63,61.61 167.63,54.74 171.56,54.74 171.56,55.63 "/>
   <polygon class="fil5" points="179.34,54.74 179.34,55.63 177.42,55.63 177.42,61.61 176.3,61.61 176.3,55.63 174.39,55.63 174.39,54.74 "/>
   <polygon class="fil5" points="181.28,55.63 181.28,57.72 183.81,57.72 183.81,58.57 181.28,58.57 181.28,60.7 184.1,60.7 184.1,61.61 180.17,61.61 180.17,54.74 184.1,54.74 184.1,55.63 "/>
   <path class="fil5" d="M190.35 55.31c0.56,0.43 0.94,1.01 1.13,1.74l-1.18 0c-0.16,-0.41 -0.42,-0.74 -0.77,-0.98 -0.36,-0.25 -0.79,-0.37 -1.3,-0.37 -0.41,0 -0.78,0.1 -1.1,0.3 -0.32,0.2 -0.57,0.49 -0.76,0.86 -0.18,0.38 -0.27,0.81 -0.27,1.31 0,0.5 0.09,0.93 0.27,1.3 0.19,0.38 0.44,0.66 0.76,0.86 0.32,0.21 0.69,0.31 1.1,0.31 0.51,0 0.94,-0.12 1.3,-0.37 0.35,-0.24 0.61,-0.57 0.77,-0.98l1.18 0c-0.19,0.74 -0.57,1.32 -1.13,1.74 -0.56,0.43 -1.26,0.64 -2.1,0.64 -0.65,0 -1.22,-0.15 -1.72,-0.44 -0.5,-0.3 -0.89,-0.71 -1.16,-1.24 -0.28,-0.53 -0.41,-1.13 -0.41,-1.82 0,-0.68 0.13,-1.28 0.41,-1.81 0.27,-0.53 0.66,-0.94 1.16,-1.24 0.5,-0.3 1.07,-0.45 1.72,-0.45 0.84,0 1.54,0.21 2.1,0.64z"/>
   <polygon class="fil5" points="198.15,61.61 197.04,61.61 193.7,56.54 193.7,61.61 192.59,61.61 192.59,54.75 193.7,54.75 197.04,59.84 197.04,54.75 198.15,54.75 "/>
   <path class="fil5" d="M201.5 55.98c-0.34,0.2 -0.61,0.49 -0.8,0.87 -0.2,0.38 -0.29,0.81 -0.29,1.31 0,0.5 0.09,0.94 0.29,1.32 0.19,0.37 0.46,0.66 0.8,0.86 0.34,0.21 0.74,0.31 1.18,0.31 0.43,0 0.82,-0.1 1.16,-0.31 0.34,-0.2 0.61,-0.49 0.8,-0.86 0.19,-0.38 0.29,-0.82 0.29,-1.32 0,-0.5 -0.1,-0.93 -0.29,-1.31 -0.19,-0.38 -0.46,-0.67 -0.8,-0.87 -0.34,-0.2 -0.73,-0.3 -1.16,-0.3 -0.44,0 -0.84,0.1 -1.18,0.3zm2.91 -0.88c0.51,0.3 0.92,0.71 1.21,1.25 0.3,0.53 0.45,1.14 0.45,1.81 0,0.68 -0.15,1.28 -0.45,1.82 -0.29,0.54 -0.7,0.95 -1.21,1.26 -0.52,0.3 -1.1,0.45 -1.73,0.45 -0.64,0 -1.22,-0.15 -1.74,-0.45 -0.52,-0.31 -0.92,-0.72 -1.22,-1.26 -0.3,-0.54 -0.45,-1.14 -0.45,-1.82 0,-0.67 0.15,-1.28 0.45,-1.81 0.3,-0.54 0.7,-0.95 1.22,-1.25 0.52,-0.3 1.1,-0.45 1.74,-0.45 0.63,0 1.21,0.15 1.73,0.45z"/>
   <polygon class="fil5" points="208.3,60.74 210.67,60.74 210.67,61.61 207.19,61.61 207.19,54.74 208.3,54.74 "/>
   <path class="fil5" d="M213.54 55.98c-0.34,0.2 -0.61,0.49 -0.8,0.87 -0.19,0.38 -0.29,0.81 -0.29,1.31 0,0.5 0.1,0.94 0.29,1.32 0.19,0.37 0.46,0.66 0.8,0.86 0.35,0.21 0.74,0.31 1.18,0.31 0.44,0 0.82,-0.1 1.16,-0.31 0.35,-0.2 0.61,-0.49 0.8,-0.86 0.19,-0.38 0.29,-0.82 0.29,-1.32 0,-0.5 -0.1,-0.93 -0.29,-1.31 -0.19,-0.38 -0.45,-0.67 -0.8,-0.87 -0.34,-0.2 -0.72,-0.3 -1.16,-0.3 -0.44,0 -0.83,0.1 -1.18,0.3zm2.91 -0.88c0.52,0.3 0.92,0.71 1.22,1.25 0.29,0.53 0.44,1.14 0.44,1.81 0,0.68 -0.15,1.28 -0.44,1.82 -0.3,0.54 -0.7,0.95 -1.22,1.26 -0.52,0.3 -1.09,0.45 -1.73,0.45 -0.64,0 -1.22,-0.15 -1.74,-0.45 -0.51,-0.31 -0.92,-0.72 -1.22,-1.26 -0.3,-0.54 -0.45,-1.14 -0.45,-1.82 0,-0.67 0.15,-1.28 0.45,-1.81 0.3,-0.54 0.71,-0.95 1.22,-1.25 0.52,-0.3 1.1,-0.45 1.74,-0.45 0.64,0 1.21,0.15 1.73,0.45z"/>
   <path class="fil5" d="M224.42 55.28c0.54,0.4 0.9,0.95 1.08,1.65l-1.17 0c-0.15,-0.37 -0.39,-0.67 -0.73,-0.89 -0.35,-0.22 -0.75,-0.33 -1.22,-0.33 -0.43,0 -0.81,0.1 -1.15,0.3 -0.34,0.2 -0.61,0.49 -0.8,0.86 -0.19,0.37 -0.29,0.8 -0.29,1.3 0,0.53 0.1,0.98 0.3,1.36 0.19,0.37 0.46,0.66 0.82,0.86 0.35,0.2 0.76,0.3 1.23,0.3 0.57,0 1.06,-0.18 1.47,-0.53 0.41,-0.36 0.66,-0.84 0.74,-1.46l-2.52 0 0 -0.82 3.46 0 0 1.06c-0.08,0.51 -0.26,0.97 -0.55,1.38 -0.28,0.41 -0.65,0.74 -1.11,0.99 -0.47,0.25 -1,0.37 -1.6,0.37 -0.67,0 -1.26,-0.15 -1.77,-0.45 -0.51,-0.3 -0.91,-0.71 -1.19,-1.24 -0.28,-0.53 -0.42,-1.13 -0.42,-1.82 0,-0.68 0.14,-1.28 0.42,-1.81 0.28,-0.53 0.68,-0.94 1.19,-1.24 0.51,-0.29 1.09,-0.44 1.76,-0.44 0.82,0 1.5,0.2 2.05,0.6z"/>
   <polygon class="fil5" points="227.86,61.61 226.75,61.61 226.75,54.74 227.86,54.74 "/>
   <path class="fil5" d="M233 59.26l-1.14 -3.21 -1.14 3.21 2.28 0zm0.31 0.86l-2.9 0 -0.53 1.49 -1.19 0 2.53 -6.77 1.28 0 2.52 6.77 -1.19 0 -0.52 -1.49z"/>
   <polygon class="fil5" points="239.24,55.63 239.24,57.72 241.77,57.72 241.77,58.57 239.24,58.57 239.24,60.7 242.06,60.7 242.06,61.61 238.13,61.61 238.13,54.74 242.06,54.74 242.06,55.63 "/>
   <polygon class="fil5" points="250.27,54.84 250.27,61.61 249.15,61.61 249.15,56.54 247.19,61.61 246.22,61.61 244.25,56.54 244.25,61.61 243.14,61.61 243.14,54.84 244.48,54.84 246.72,60.25 248.92,54.84 "/>
   <path class="fil5" d="M257.47 56.85c0,-0.39 -0.11,-0.69 -0.32,-0.89 -0.22,-0.21 -0.57,-0.31 -1.05,-0.31l-1.11 0 0 2.39 1.11 0c0.91,0 1.37,-0.4 1.37,-1.19zm-2.48 2.09l0 2.67 -1.11 0 0 -6.87 2.34 0c0.79,0 1.38,0.19 1.78,0.56 0.4,0.38 0.6,0.89 0.6,1.55 0,0.65 -0.2,1.16 -0.61,1.53 -0.41,0.38 -1,0.56 -1.77,0.56l-1.23 0z"/>
   <polygon class="fil5" points="260.69,55.63 260.69,57.72 263.22,57.72 263.22,58.57 260.69,58.57 260.69,60.7 263.51,60.7 263.51,61.61 259.58,61.61 259.58,54.74 263.51,54.74 263.51,55.63 "/>
   <path class="fil5" d="M265.7 58.08l1.23 0c0.89,0 1.34,-0.4 1.34,-1.19 0,-0.38 -0.11,-0.67 -0.33,-0.88 -0.21,-0.21 -0.55,-0.32 -1.01,-0.32l-1.23 0 0 2.39zm2.5 3.53l-1.71 -2.75 -0.79 0 0 2.75 -1.11 0 0 -6.87 2.42 0c0.79,0 1.38,0.19 1.79,0.57 0.41,0.38 0.61,0.89 0.61,1.52 0,0.54 -0.15,0.98 -0.45,1.32 -0.31,0.35 -0.74,0.57 -1.31,0.67l1.8 2.79 -1.25 0z"/>
   <polygon class="fil5" points="271.52,61.61 270.41,61.61 270.41,54.74 271.52,54.74 "/>
   <polygon class="fil5" points="276.93,54.74 276.93,55.63 273.98,55.63 273.98,57.76 276.41,57.76 276.41,58.62 273.98,58.62 273.98,61.61 272.87,61.61 272.87,54.74 "/>
   <path class="fil5" d="M281.43 53.22l-2.15 1.1 0 -0.78 2.15 -1.19 0 0.87zm-2.4 2.41l0 2.09 2.53 0 0 0.85 -2.53 0 0 2.14 2.82 0 0 0.9 -3.93 0 0 -6.87 3.93 0 0 0.89 -2.82 0z"/>
   <path class="fil5" d="M284.04 58.08l1.23 0c0.9,0 1.34,-0.4 1.34,-1.19 0,-0.38 -0.11,-0.67 -0.32,-0.88 -0.22,-0.21 -0.56,-0.32 -1.02,-0.32l-1.23 0 0 2.39zm2.51 3.53l-1.72 -2.75 -0.79 0 0 2.75 -1.11 0 0 -6.87 2.43 0c0.78,0 1.38,0.19 1.78,0.57 0.41,0.38 0.61,0.89 0.61,1.52 0,0.54 -0.15,0.98 -0.45,1.32 -0.3,0.35 -0.74,0.57 -1.31,0.67l1.8 2.79 -1.24 0z"/>
   <polygon class="fil5" points="289.86,61.61 288.75,61.61 288.75,54.74 289.86,54.74 "/>
   <path class="fil5" d="M296.38 55.31c0.56,0.43 0.93,1.01 1.13,1.74l-1.18 0c-0.16,-0.41 -0.42,-0.74 -0.77,-0.98 -0.36,-0.25 -0.79,-0.37 -1.3,-0.37 -0.41,0 -0.78,0.1 -1.1,0.3 -0.32,0.2 -0.57,0.49 -0.76,0.86 -0.18,0.38 -0.28,0.81 -0.28,1.31 0,0.5 0.1,0.93 0.28,1.3 0.19,0.38 0.44,0.66 0.76,0.86 0.32,0.21 0.69,0.31 1.1,0.31 0.51,0 0.94,-0.12 1.3,-0.37 0.35,-0.24 0.61,-0.57 0.77,-0.98l1.18 0c-0.2,0.74 -0.57,1.32 -1.13,1.74 -0.56,0.43 -1.26,0.64 -2.1,0.64 -0.65,0 -1.23,-0.15 -1.73,-0.44 -0.5,-0.3 -0.88,-0.71 -1.16,-1.24 -0.27,-0.53 -0.41,-1.13 -0.41,-1.82 0,-0.68 0.14,-1.28 0.41,-1.81 0.28,-0.53 0.66,-0.94 1.16,-1.24 0.5,-0.3 1.08,-0.45 1.73,-0.45 0.84,0 1.54,0.21 2.1,0.64z"/>
   <path class="fil5" d="M300.62 55.98c-0.34,0.2 -0.61,0.49 -0.8,0.87 -0.19,0.38 -0.29,0.81 -0.29,1.31 0,0.5 0.1,0.94 0.29,1.32 0.19,0.37 0.46,0.66 0.8,0.86 0.35,0.21 0.74,0.31 1.18,0.31 0.44,0 0.82,-0.1 1.16,-0.31 0.35,-0.2 0.61,-0.49 0.8,-0.86 0.19,-0.38 0.29,-0.82 0.29,-1.32 0,-0.5 -0.1,-0.93 -0.29,-1.31 -0.19,-0.38 -0.45,-0.67 -0.8,-0.87 -0.34,-0.2 -0.72,-0.3 -1.16,-0.3 -0.44,0 -0.83,0.1 -1.18,0.3zm2.91 -0.88c0.52,0.3 0.92,0.71 1.22,1.25 0.29,0.53 0.44,1.14 0.44,1.81 0,0.68 -0.15,1.28 -0.44,1.82 -0.3,0.54 -0.7,0.95 -1.22,1.26 -0.52,0.3 -1.09,0.45 -1.73,0.45 -0.64,0 -1.22,-0.15 -1.74,-0.45 -0.51,-0.31 -0.92,-0.72 -1.22,-1.26 -0.3,-0.54 -0.45,-1.14 -0.45,-1.82 0,-0.67 0.15,-1.28 0.45,-1.81 0.3,-0.54 0.71,-0.95 1.22,-1.25 0.52,-0.3 1.1,-0.45 1.74,-0.45 0.64,0 1.21,0.15 1.73,0.45z"/>
   <path class="fil5" d="M310.58 60.72c-0.16,0.29 -0.41,0.52 -0.74,0.7 -0.33,0.17 -0.73,0.26 -1.21,0.26 -0.47,0 -0.89,-0.08 -1.26,-0.25 -0.37,-0.17 -0.67,-0.4 -0.89,-0.7 -0.22,-0.29 -0.34,-0.64 -0.38,-1.03l1.19 0c0.03,0.3 0.16,0.56 0.39,0.77 0.22,0.22 0.52,0.32 0.9,0.32 0.33,0 0.6,-0.09 0.78,-0.27 0.19,-0.18 0.28,-0.42 0.28,-0.7 0,-0.25 -0.07,-0.45 -0.21,-0.61 -0.13,-0.16 -0.3,-0.28 -0.5,-0.37 -0.2,-0.09 -0.48,-0.2 -0.83,-0.32 -0.43,-0.13 -0.78,-0.27 -1.05,-0.4 -0.27,-0.14 -0.49,-0.34 -0.68,-0.6 -0.19,-0.26 -0.29,-0.6 -0.29,-1.02 0,-0.37 0.1,-0.7 0.28,-0.97 0.18,-0.28 0.44,-0.5 0.78,-0.65 0.33,-0.15 0.72,-0.23 1.16,-0.23 0.71,0 1.26,0.17 1.67,0.51 0.42,0.33 0.65,0.77 0.71,1.32l-1.2 0c-0.04,-0.26 -0.16,-0.48 -0.36,-0.67 -0.2,-0.18 -0.47,-0.28 -0.82,-0.28 -0.31,0 -0.56,0.08 -0.74,0.24 -0.19,0.16 -0.29,0.39 -0.29,0.69 0,0.23 0.07,0.43 0.2,0.58 0.13,0.15 0.29,0.27 0.49,0.36 0.2,0.09 0.47,0.19 0.81,0.31 0.44,0.13 0.79,0.27 1.07,0.41 0.27,0.14 0.51,0.34 0.7,0.61 0.19,0.26 0.29,0.61 0.29,1.05 0,0.34 -0.08,0.65 -0.25,0.94z"/>
  </g>
 </g>
</svg>
